Normalized EMG Linear Envelopes
nRows=245
nColumns=4

endheader
time	 med_gas_r	  soleus_r	 tib_ant_r	
2.72782	  0.002725	  0.005598	  0.001631	
2.76109	  0.002811	  0.005557	  0.001657	
2.79435	  0.003048	  0.005539	  0.001675	
2.82762	  0.003483	  0.005553	  0.001681	
2.86089	  0.004151	  0.005583	  0.001674	
2.89415	  0.005067	  0.005608	  0.001657	
2.92742	  0.006225	  0.005626	  0.001639	
2.96069	  0.007555	  0.005640	  0.001627	
2.99395	  0.008885	  0.005646	  0.001623	
3.02722	  0.009898	  0.005650	  0.001631	
3.06048	  0.010145	  0.005654	  0.001643	
3.09375	  0.009509	  0.005661	  0.001657	
3.12702	  0.008342	  0.005669	  0.001673	
3.16028	  0.007016	  0.005672	  0.001689	
3.19355	  0.005788	  0.005665	  0.001704	
3.22681	  0.004785	  0.005661	  0.001717	
3.26008	  0.004041	  0.005666	  0.001725	
3.29335	  0.003532	  0.005673	  0.001721	
3.32661	  0.003215	  0.005687	  0.001705	
3.35988	  0.003035	  0.005718	  0.001681	
3.39315	  0.002950	  0.005765	  0.001653	
3.42641	  0.002923	  0.005824	  0.001624	
3.45968	  0.002929	  0.005888	  0.001597	
3.49294	  0.002953	  0.005953	  0.001576	
3.52621	  0.002992	  0.006020	  0.001562	
3.55948	  0.003040	  0.006085	  0.001561	
3.59274	  0.003090	  0.006110	  0.001570	
3.62601	  0.003155	  0.006073	  0.001585	
3.65927	  0.003249	  0.005988	  0.001600	
3.69254	  0.003370	  0.005889	  0.001611	
3.72581	  0.003511	  0.005795	  0.001617	
3.75907	  0.003664	  0.005719	  0.001621	
3.79234	  0.003822	  0.005663	  0.001618	
3.8256	  0.003973	  0.005631	  0.001610	
3.85887	  0.004103	  0.005623	  0.001598	
3.89214	  0.004195	  0.005636	  0.001583	
3.9254	  0.004209	  0.005663	  0.001567	
3.95867	  0.004150	  0.005712	  0.001552	
3.99194	  0.004051	  0.005776	  0.001537	
4.0252	  0.003930	  0.005841	  0.001524	
4.05847	  0.003795	  0.005899	  0.001516	
4.09173	  0.003645	  0.005941	  0.001513	
4.125	  0.003500	  0.005961	  0.001515	
4.15827	  0.003382	  0.005955	  0.001524	
4.19153	  0.003295	  0.005917	  0.001541	
4.2248	  0.003243	  0.005870	  0.001568	
4.25806	  0.003222	  0.005856	  0.001609	
4.29133	  0.003225	  0.005908	  0.001674	
4.3246	  0.003238	  0.006038	  0.001769	
4.35786	  0.003259	  0.006219	  0.001902	
4.39113	  0.003289	  0.006391	  0.002075	
4.4244	  0.003328	  0.006502	  0.002287	
4.45766	  0.003367	  0.006498	  0.002525	
4.49093	  0.003391	  0.006386	  0.002759	
4.52419	  0.003382	  0.006203	  0.002932	
4.55746	  0.003335	  0.005977	  0.002950	
4.59073	  0.003254	  0.005717	  0.002681	
4.62399	  0.003143	  0.005404	  0.001954	
4.65726	  0.003003	  0.004993	  0.000573	
4.69052	  0.002824	  0.004429	 -0.001660	
4.72379	  0.002587	  0.003647	 -0.004903	
4.75706	  0.002284	  0.002618	 -0.009200	
4.79032	  0.001948	  0.001378	 -0.014393	
4.82359	  0.001633	  0.000038	 -0.020003	
4.85685	  0.001402	 -0.001174	 -0.025077	
4.89012	  0.001348	 -0.001875	 -0.028025	
4.92339	  0.001597	 -0.001520	 -0.026478	
4.95665	  0.002306	  0.000633	 -0.017212	
4.98992	  0.003671	  0.005524	  0.003792	
5.02319	  0.005912	  0.014222	  0.041044	
5.05645	  0.009233	  0.027769	  0.098916	
5.08972	  0.013771	  0.046911	  0.180510	
5.12298	  0.019504	  0.071712	  0.285937	
5.15625	  0.026112	  0.100999	  0.409977	
5.18952	  0.032891	  0.131794	  0.541884	
5.22278	  0.038943	  0.159942	  0.669986	
5.25605	  0.043401	  0.181837	  0.783226	
5.28931	  0.045797	  0.195247	  0.872927	
5.32258	  0.046242	  0.199795	  0.937001	
5.35585	  0.045393	  0.197831	  0.977392	
5.38911	  0.044045	  0.192910	  0.996751	
5.42238	  0.042693	  0.188008	  0.998844	
5.45565	  0.041456	  0.184700	  0.984474	
5.48891	  0.040360	  0.183327	  0.955418	
5.52218	  0.039312	  0.183516	  0.916128	
5.55544	  0.038196	  0.184339	  0.874805	
5.58871	  0.036915	  0.184867	  0.838661	
5.62198	  0.035688	  0.185368	  0.812307	
5.65524	  0.034786	  0.186117	  0.798006	
5.68851	  0.034328	  0.187301	  0.793678	
5.72177	  0.034220	  0.189174	  0.795053	
5.75504	  0.034209	  0.191067	  0.797883	
5.78831	  0.034199	  0.192199	  0.800148	
5.82157	  0.034228	  0.192212	  0.801794	
5.85484	  0.034439	  0.191616	  0.803603	
5.8881	  0.034934	  0.191013	  0.807024	
5.92137	  0.035837	  0.191248	  0.812860	
5.95464	  0.037094	  0.192829	  0.818978	
5.9879	  0.038473	  0.195301	  0.820003	
6.02117	  0.039537	  0.196929	  0.812670	
6.05444	  0.039905	  0.195635	  0.794324	
6.0877	  0.039530	  0.190876	  0.766292	
6.12097	  0.038529	  0.183710	  0.732408	
6.15423	  0.037092	  0.176010	  0.699829	
6.1875	  0.035763	  0.169627	  0.675844	
6.22077	  0.034943	  0.165167	  0.663914	
6.25403	  0.034851	  0.162500	  0.663742	
6.2873	  0.035436	  0.161499	  0.672452	
6.32056	  0.036377	  0.161830	  0.686315	
6.35383	  0.037334	  0.162883	  0.702351	
6.3871	  0.038039	  0.163732	  0.716998	
6.42036	  0.038438	  0.163841	  0.724017	
6.45363	  0.038538	  0.162844	  0.719892	
6.4869	  0.038341	  0.160267	  0.705375	
6.52016	  0.038042	  0.157225	  0.685150	
6.55343	  0.037934	  0.154959	  0.666689	
6.58669	  0.038096	  0.154169	  0.657418	
6.61996	  0.038663	  0.155346	  0.662138	
6.65323	  0.039590	  0.158369	  0.678778	
6.68649	  0.040617	  0.162017	  0.699818	
6.71976	  0.041479	  0.165405	  0.718220	
6.75302	  0.041931	  0.167802	  0.730251	
6.78629	  0.041814	  0.169317	  0.733105	
6.81956	  0.041261	  0.171075	  0.726177	
6.85282	  0.040398	  0.173498	  0.711503	
6.88609	  0.039253	  0.176000	  0.689500	
6.91935	  0.037941	  0.177645	  0.662938	
6.95262	  0.036633	  0.178978	  0.638248	
6.98589	  0.035409	  0.180335	  0.621030	
7.01915	  0.034372	  0.181121	  0.612238	
7.05242	  0.033714	  0.181565	  0.612119	
7.08569	  0.033618	  0.183106	  0.619795	
7.11895	  0.034178	  0.187051	  0.633000	
7.15222	  0.035396	  0.193037	  0.649544	
7.18548	  0.037152	  0.199453	  0.667312	
7.21875	  0.039019	  0.204322	  0.682298	
7.25202	  0.040646	  0.206106	  0.690424	
7.28528	  0.041885	  0.205139	  0.690481	
7.31855	  0.042568	  0.202133	  0.684769	
7.35181	  0.042626	  0.197782	  0.679057	
7.38508	  0.042266	  0.192813	  0.677572	
7.41835	  0.041580	  0.187143	  0.680428	
7.45161	  0.040516	  0.181256	  0.686315	
7.48488	  0.038843	  0.175494	  0.693629	
7.51815	  0.036580	  0.170003	  0.701407	
7.55141	  0.034130	  0.165398	  0.709460	
7.58468	  0.031972	  0.161658	  0.715614	
7.61794	  0.030473	  0.158554	  0.717028	
7.65121	  0.029815	  0.156048	  0.713453	
7.68448	  0.029968	  0.153681	  0.707950	
7.71774	  0.030751	  0.151114	  0.700954	
7.75101	  0.031986	  0.148788	  0.691206	
7.78427	  0.033450	  0.147648	  0.680810	
7.81754	  0.034890	  0.149125	  0.673215	
7.85081	  0.036063	  0.153946	  0.672026	
7.88407	  0.036927	  0.162421	  0.679242	
7.91734	  0.037431	  0.174179	  0.695931	
7.9506	  0.037557	  0.187783	  0.718697	
7.98387	  0.037322	  0.200521	  0.740903	
8.01714	  0.036622	  0.210543	  0.757070	
8.0504	  0.035587	  0.216946	  0.764991	
8.08367	  0.034647	  0.220069	  0.763561	
8.11694	  0.034117	  0.219953	  0.753687	
8.1502	  0.033952	  0.215777	  0.739394	
8.18347	  0.033970	  0.207542	  0.724673	
8.21673	  0.033988	  0.196574	  0.709190	
8.25	  0.033800	  0.184590	  0.691034	
8.28327	  0.033515	  0.172811	  0.672345	
8.31653	  0.033284	  0.162626	  0.654981	
8.3498	  0.033306	  0.155708	  0.640343	
8.38306	  0.033761	  0.153679	  0.629639	
8.41633	  0.034521	  0.156136	  0.623274	
8.4496	  0.035393	  0.161541	  0.619454	
8.48286	  0.036082	  0.167970	  0.615679	
8.51613	  0.036208	  0.173644	  0.610432	
8.5494	  0.035709	  0.177742	  0.604401	
8.58266	  0.034948	  0.180425	  0.599624	
8.61593	  0.034213	  0.181878	  0.597459	
8.64919	  0.033698	  0.181750	  0.598396	
8.68246	  0.033575	  0.180443	  0.602360	
8.71573	  0.033829	  0.178366	  0.608518	
8.74899	  0.034135	  0.174319	  0.615418	
8.78226	  0.034217	  0.168287	  0.622402	
8.81552	  0.034007	  0.161612	  0.629060	
8.84879	  0.033551	  0.155942	  0.634597	
8.88206	  0.032974	  0.152127	  0.638081	
8.91532	  0.032485	  0.150956	  0.641390	
8.94859	  0.032272	  0.152810	  0.646279	
8.98185	  0.032447	  0.157132	  0.653972	
9.01512	  0.032970	  0.162796	  0.663765	
9.04839	  0.033972	  0.170387	  0.674804	
9.08165	  0.035666	  0.180626	  0.685051	
9.11492	  0.038004	  0.192501	  0.691686	
9.14819	  0.040727	  0.204068	  0.692354	
9.18145	  0.043422	  0.214098	  0.686973	
9.21472	  0.045536	  0.221159	  0.679043	
9.24798	  0.046683	  0.224238	  0.669950	
9.28125	  0.046914	  0.224079	  0.660371	
9.31452	  0.046502	  0.221342	  0.650220	
9.34778	  0.045844	  0.216812	  0.640645	
9.38105	  0.045405	  0.211949	  0.634704	
9.41431	  0.045280	  0.207858	  0.633523	
9.44758	  0.045337	  0.204265	  0.637175	
9.48085	  0.045289	  0.200296	  0.645176	
9.51411	  0.045031	  0.196235	  0.656000	
9.54738	  0.044843	  0.193160	  0.669620	
9.58065	  0.044841	  0.192249	  0.685308	
9.61391	  0.044685	  0.193104	  0.698189	
9.64718	  0.043969	  0.194116	  0.702471	
9.68044	  0.042648	  0.194069	  0.691359	
9.71371	  0.040793	  0.191471	  0.660085	
9.74698	  0.038297	  0.184678	  0.608202	
9.78024	  0.034986	  0.172700	  0.537579	
9.81351	  0.030791	  0.154997	  0.452447	
9.84677	  0.025926	  0.132605	  0.359308	
9.88004	  0.020879	  0.108082	  0.266392	
9.91331	  0.016259	  0.085101	  0.182343	
9.94657	  0.012459	  0.066117	  0.113035	
9.97984	  0.009603	  0.051937	  0.060475	
10.0131	  0.007630	  0.042392	  0.023828	
10.0464	  0.006363	  0.036534	  0.000687	
10.0796	  0.005633	  0.033565	 -0.011985	
10.1129	  0.005335	  0.033163	 -0.017215	
10.1462	  0.005365	  0.034405	 -0.017639	
10.1794	  0.005592	  0.036032	 -0.015332	
10.2127	  0.005832	  0.036689	 -0.011803	
10.246	  0.005930	  0.035295	 -0.008057	
10.2792	  0.005772	  0.031449	 -0.004679	
10.3125	  0.005430	  0.026094	 -0.001945	
10.3458	  0.005025	  0.020491	  0.000068	
10.379	  0.004616	  0.015419	  0.001403	
10.4123	  0.004251	  0.011279	  0.002186	
10.4456	  0.003951	  0.008187	  0.002570	
10.4788	  0.003712	  0.006079	  0.002694	
10.5121	  0.003515	  0.004798	  0.002665	
10.5454	  0.003350	  0.004143	  0.002556	
10.5786	  0.003219	  0.003919	  0.002413	
10.6119	  0.003123	  0.003973	  0.002258	
10.6452	  0.003055	  0.004170	  0.002112	
10.6784	  0.003005	  0.004402	  0.001984	
10.7117	  0.002969	  0.004636	  0.001884	
10.745	  0.002947	  0.004872	  0.001810	
10.7782	  0.002934	  0.005112	  0.001759	
10.8115	  0.002926	  0.005354	  0.001727	
10.8448	  0.002923	  0.005593	  0.001707	
